<svg height="512pt" viewBox="0 -32 512.00011 512" width="512pt" xmlns="http://www.w3.org/2000/svg"><path d="m508.433594 85.9375c-3.039063-3.753906-7.605469-5.933594-12.433594-5.9375h-394.367188l-5.632812-65.375c-.714844-8.296875-7.675781-14.65625-16-14.625h-64c-8.835938 0-16 7.164062-16 16s7.164062 16 16 16h49.328125l30.671875 353.378906c.714844 8.292969 7.675781 14.652344 16 14.621094 0 26.511719 21.492188 48 48 48 26.511719 0 48-21.488281 48-48h96c0 26.511719 21.492188 48 48 48 26.511719 0 48-21.488281 48-48h16c8.839844 0 16-7.164062 16-16s-7.160156-16-16-16h-28.605469c-17.195312-19.546875-46.980469-21.453125-66.523437-4.257812-1.511719 1.328124-2.933594 2.75-4.261719 4.257812h-121.21875c-17.378906-19.652344-47.398437-21.496094-67.054687-4.113281-.660157.582031-1.308594 1.1875-1.9375 1.808593l-2.511719-29.695312h324.113281c7.546875 0 14.070312-5.273438 15.648438-12.65625l48-224c1.007812-4.722656-.175782-9.652344-3.214844-13.40625zm-156.433594 298.0625c8.835938.007812 15.992188 7.179688 15.984375 16.015625s-7.179687 15.996094-16.015625 15.984375c-8.835938-.007812-15.992188-7.175781-15.984375-16.015625.003906-2.800781.742187-5.554687 2.144531-7.984375 2.859375-4.953125 8.148438-8.003906 13.871094-8zm-192 0c8.835938.007812 15.992188 7.179688 15.984375 16.015625s-7.179687 15.996094-16.015625 15.984375c-8.835938-.007812-15.992188-7.175781-15.984375-16.015625.003906-2.800781.742187-5.554687 2.144531-7.984375 2.859375-4.953125 8.148438-8.003906 13.871094-8zm275.054688-80h-313.949219l-16.707031-192h371.808593zm0 0"/></svg>